<svg width="19" height="22" viewBox="0 0 19 22" fill="none" xmlns="http://www.w3.org/2000/svg">
<path fill-rule="evenodd" clip-rule="evenodd" d="M6.63193 2.26117C6.33615 1.30312 6.99126 0.318351 8.09514 0.0616403C9.19903 -0.195072 10.3337 0.373484 10.6295 1.33155L10.8136 1.92794L16.0753 0.704332C17.1791 0.447622 18.3138 1.01618 18.6096 1.97424L18.9778 3.16686C19.0702 3.46626 18.8655 3.77399 18.5206 3.85422L1.23121 7.8749C0.886241 7.95511 0.53166 7.77745 0.439225 7.47805L0.0710226 6.28542C-0.224764 5.32737 0.430332 4.3426 1.53422 4.08589L6.81607 2.85758L6.63193 2.26117ZM9.48942 2.23588L8.14025 2.54964L7.95048 1.93495C7.85806 1.63556 8.06276 1.32782 8.40773 1.2476L8.50768 1.22435C8.85263 1.14413 9.20723 1.32181 9.29964 1.6212L9.48942 2.23588ZM1.42664 5.9433C1.3342 5.6439 1.53892 5.33617 1.88389 5.25593L16.4999 1.85696C16.8449 1.77673 17.1994 1.95441 17.2919 2.25381L17.4793 2.86097L1.61409 6.55046L1.42664 5.9433ZM3.31084 8.03673C2.95371 8.03673 2.6642 8.28801 2.6642 8.59796V9.51837V19.0816C2.6642 20.6934 4.16967 22 6.02677 22H14.3556C16.2127 22 17.7182 20.6934 17.7182 19.0816V9.51837V8.59796C17.7182 8.28801 17.4287 8.03673 17.0715 8.03673H17.0198C16.6627 8.03673 16.3732 8.28801 16.3732 8.59796V9.51837H16.3473V19.0367C16.3473 20.0286 15.4209 20.8327 14.278 20.8327H6.10437C4.96153 20.8327 4.03509 20.0286 4.03509 19.0367V9.51837H4.00923V8.59796C4.00923 8.28801 3.71971 8.03673 3.36258 8.03673H3.31084ZM6.72515 10.102C6.36802 10.102 6.0785 10.3533 6.0785 10.6633V19.0592C6.0785 19.3691 6.36802 19.6204 6.72515 19.6204H6.80275C7.15988 19.6204 7.4494 19.3691 7.4494 19.0592V10.6633C7.4494 10.3533 7.15988 10.102 6.80275 10.102H6.72515ZM9.49281 10.6633C9.49281 10.3533 9.78233 10.102 10.1395 10.102H10.2171C10.5742 10.102 10.8637 10.3533 10.8637 10.6633V19.0592C10.8637 19.3691 10.5742 19.6204 10.2171 19.6204H10.1395C9.78233 19.6204 9.49281 19.3691 9.49281 19.0592V10.6633ZM13.5538 10.102C13.1966 10.102 12.9071 10.3533 12.9071 10.6633V19.0592C12.9071 19.3691 13.1966 19.6204 13.5538 19.6204H13.6314C13.9885 19.6204 14.278 19.3691 14.278 19.0592V10.6633C14.278 10.3533 13.9885 10.102 13.6314 10.102H13.5538Z" fill="white"/>
</svg>
