<?xml version="1.0" encoding="utf-8"?>
<svg width="26" height="26" viewBox="0 0 26 26" fill="none" xmlns="http://www.w3.org/2000/svg">
  <path fill-rule="evenodd" clip-rule="evenodd" d="M 10 13 L 0.114 22.943 C 0.011 22.902 -0.109 23.642 0 24 C 0.321 25.058 0.895 26 2 26 C 2.293 26 2.572 25.937 2.823 25.823 L 2.828 25.828 C 2.828 25.828 3.45 25.159 3.815 24.842 L 12.828 15.828 L 23 25.943 C 23 25.982 23.707 26.105 24 26 C 25.04 25.626 26 25.105 26 24 C 26 23.707 25.937 23.428 25.823 23.177 L 25.828 23.172 L 25.815 23.158 C 24.599 21.996 15.657 13 15.657 13 L 24.842 3.815 C 25.12 3.503 25.728 2.771 25.728 2.771 C 25.728 2.771 26 2.293 26 2 C 26 0.895 25.105 0 24 0 C 23.707 0 22.943 0.227 22.943 0.227 L 12.828 10.172 L 3.815 1.158 C 3.505 0.823 3.153 0.481 2.842 0.185 L 2.828 0.172 L 2.823 0.177 C 2.572 0.063 2.293 0 2 0 C 0.895 0 0 0.895 0 2 C 0 2.293 0.185 2.915 0.185 2.915 L 10 13 Z" fill="#EFFBFF" style=""/>
</svg>