<svg width="39" height="39" viewBox="0 0 39 39" fill="none" xmlns="http://www.w3.org/2000/svg">
<path fill-rule="evenodd" clip-rule="evenodd" d="M34.048 29.2298C30.908 33.9155 25.5642 37 19.5 37C13.5669 37 8.32339 34.0474 5.15869 29.5314C6.73922 27.2973 8.81458 25.4548 11.2257 24.1497C13.8055 22.7532 16.6899 22.0149 19.6234 22.0002C22.5568 21.9856 25.4485 22.6951 28.0421 24.0657L28.0421 24.0657C30.4088 25.3164 32.4606 27.0824 34.048 29.2298ZM35.1359 27.3677C33.4512 25.2823 31.3572 23.5555 28.9765 22.2974C26.092 20.773 22.8759 19.984 19.6134 20.0002H19.6134C16.3509 20.0166 13.1429 20.8377 10.2737 22.3908C7.84215 23.707 5.71769 25.5145 4.03212 27.6925C2.73487 25.2483 2 22.46 2 19.5C2 9.83502 9.83502 2 19.5 2C29.165 2 37 9.83502 37 19.5C37 22.3297 36.3284 25.0025 35.1359 27.3677ZM39 19.5C39 30.2696 30.2696 39 19.5 39C8.73045 39 0 30.2696 0 19.5C0 8.73045 8.73045 0 19.5 0C30.2696 0 39 8.73045 39 19.5ZM19 5C15.6863 5 13 7.68629 13 11C13 14.3137 15.6863 17 19 17C22.3137 17 25 14.3137 25 11C25 7.68629 22.3137 5 19 5ZM11 11C11 6.58172 14.5817 3 19 3C23.4183 3 27 6.58172 27 11C27 15.4183 23.4183 19 19 19C14.5817 19 11 15.4183 11 11Z" fill="#EFFBFF"/>
</svg>
