<svg width="88" height="97" viewBox="0 0 88 97" fill="none" xmlns="http://www.w3.org/2000/svg">
<path d="M0.5 0.5H87.5V96.5H15C6.99187 96.5 0.5 90.0081 0.5 82V0.5Z" stroke="#0C3759"/>
<path fill-rule="evenodd" clip-rule="evenodd" d="M56.5523 12.1288C55.7369 12.5294 55.929 14.2328 56.9877 15.9879C57.2853 16.4814 57.4219 16.8182 57.3528 16.8883C57.2491 16.9935 56.8511 16.5551 56.2154 15.6354C56.0578 15.4073 55.6608 15.1634 54.9874 14.8807C54.041 14.4835 53.9464 14.4668 53.0543 14.5417C52.0715 14.6242 50.8441 14.4812 49.9739 14.1829C49.3275 13.9613 49.1757 13.9602 49.3542 14.1785C49.5687 14.4408 49.3182 14.5049 48.8518 14.3072C48.2638 14.0578 47.8522 14.086 47.5374 14.3972C47.3885 14.5442 47.1433 14.7851 46.9926 14.9321C46.8418 15.0792 46.6412 15.1996 46.5469 15.1996C46.3404 15.1998 45.0279 16.406 45.0279 16.5957C45.0279 16.6693 45.173 16.7464 45.3501 16.7671C45.786 16.8179 45.715 17.0269 45.234 17.1086C44.659 17.2065 44.5593 17.3075 44.5595 17.7925C44.5598 18.2107 44.5793 18.2327 44.9785 18.2616C45.4679 18.2971 45.8826 18.4944 45.7895 18.6474C45.7536 18.7061 45.4734 18.7241 45.1668 18.6872C44.6901 18.63 44.5586 18.6628 44.2619 18.9133C44.0711 19.0745 43.8472 19.1826 43.7645 19.1535C43.6818 19.1242 43.5405 19.1625 43.4504 19.2384C43.3213 19.347 42.5323 19.0684 39.7344 17.9258C37.7807 17.1281 34.5743 15.822 32.6089 15.0235C29.53 13.7725 28.9638 13.5034 28.517 13.0784C28.037 12.6219 27.9831 12.5992 27.7931 12.7737C27.659 12.8968 27.4935 12.934 27.3159 12.8811L27.0438 12.7999L27.3074 12.9959C27.4525 13.1038 27.571 13.2693 27.571 13.3637C27.571 13.4871 27.7153 13.5352 28.0853 13.5352C28.4538 13.5352 29.1255 13.7581 30.4578 14.3224C31.4797 14.7554 34.6622 16.093 37.5297 17.2949C40.3972 18.4969 42.8891 19.5893 43.0671 19.7226C43.2453 19.8557 43.4825 19.9492 43.5944 19.9303C43.7537 19.9032 43.8028 19.9915 43.8219 20.3399C43.8539 20.9231 44.024 21.2251 44.4789 21.5066C45.0078 21.8338 45.3675 21.7968 45.8006 21.3708C46.112 21.0646 46.2137 21.0244 46.409 21.1306C46.5888 21.2282 46.6772 21.2168 46.7873 21.0821C46.9773 20.85 46.7178 20.5087 46.4129 20.5896C46.2956 20.6207 46.1779 20.6102 46.1512 20.5662C46.0782 20.4464 46.3851 19.3255 46.6139 18.8766C46.9302 18.2561 47.0182 17.8265 46.8957 17.5C46.7296 17.0565 46.8846 16.9245 47.2085 17.2332L47.4898 17.5014L47.851 17.1531C48.0496 16.9614 48.2889 16.6558 48.3825 16.4738C48.5819 16.0863 48.7973 16.1548 48.7508 16.591C48.7235 16.8474 48.7887 16.9196 49.1707 17.0559C49.4193 17.1446 50.0187 17.2672 50.5025 17.3281C51.7705 17.4879 51.9491 17.7582 50.8412 17.8407C50.4144 17.8725 50.3443 17.9364 49.7065 18.8753C48.7051 20.349 47.8865 21.9101 47.4886 23.1048C47.076 24.3432 47.0622 24.4593 47.3596 24.1863C47.7232 23.8523 47.7827 24.1935 47.447 24.6879C46.8032 25.6357 46.7112 27.5399 47.2392 28.9906C47.468 29.6195 47.6475 29.9255 47.8482 30.0291C48.0387 30.1275 48.759 30.1765 50.0296 30.1777C51.7697 30.1793 52.2822 30.2623 51.9267 30.4852C51.8527 30.5317 51.4563 30.5604 51.0461 30.549C50.6358 30.5374 50.3002 30.5711 50.3002 30.6235C50.3002 30.676 50.627 30.9013 51.0264 31.1241C51.6513 31.4727 51.8682 31.5306 52.5788 31.538C53.7937 31.5507 53.5494 31.9221 52.3074 31.9509C51.9193 31.9599 51.7015 32.0466 51.4062 32.3098C51.1919 32.5006 50.6577 32.857 50.2191 33.1017C49.7803 33.3464 49.3291 33.6265 49.2164 33.7242C48.9768 33.9318 48.9418 34.6499 49.1488 35.1109C49.2426 35.3198 49.2481 35.4557 49.1663 35.5387C49.0075 35.6998 48.6871 35.2045 48.5654 34.61L48.4736 34.1622L48.1539 34.4866C47.8096 34.8359 47.8106 35.1095 48.1591 35.8106C48.4153 36.326 48.1489 36.5169 47.8741 36.0147C47.4707 35.277 47.4156 35.2252 47.214 35.3948C46.4825 36.0109 46.8485 37.6273 48.0766 39.204C48.3888 39.6047 48.5258 39.8741 48.4543 39.9466C48.2728 40.1308 47.2928 38.9216 46.8269 37.9388C46.4603 37.1654 46.4135 36.9666 46.456 36.3686C46.4947 35.8273 46.5956 35.5454 46.938 35.0219C47.4158 34.2914 47.5093 33.7461 47.1566 33.7461C47.0115 33.7461 46.7937 34.0207 46.4837 34.5945C45.9612 35.5617 45.7518 35.7327 45.0665 35.7513C44.5778 35.7647 44.5773 35.7643 40.8085 31.9965C38.7354 29.9241 36.8736 27.9853 36.6711 27.688C36.4687 27.391 36.0651 26.6965 35.774 26.145C35.4831 25.5935 35.1792 25.1209 35.0986 25.0949C34.716 24.9711 35.1128 26.4345 35.7199 27.3856C35.9286 27.7125 39.2415 31.1607 43.082 35.0484C47.3215 39.3398 50.0226 42.1596 49.9572 42.226C49.892 42.2922 49.0244 41.564 47.7491 40.3723C45.8819 38.6276 45.5911 38.3998 45.1332 38.3217C44.5522 38.2227 44.5541 38.2242 40.4022 34.4042C36.7516 31.0453 36.158 30.4172 35.5384 29.2581C35.2501 28.7187 34.9439 28.2773 34.8581 28.2773C34.7556 28.2773 34.7274 28.3585 34.7761 28.514C34.8168 28.6441 34.8167 28.8056 34.7758 28.8726C34.6896 29.0144 24.8756 19.2384 21.7716 15.9186L19.6627 13.663L18.3314 13.6586L17 13.6541L17.0455 16.5371C17.088 19.2411 17.1073 19.4545 17.3565 19.9732C17.7505 20.7933 17.7354 20.7802 28.0382 29.2649C31.3575 31.9986 34.862 34.8875 35.8258 35.6848C36.7897 36.482 37.7499 37.2681 37.9597 37.4316C38.2781 37.6798 44.1949 42.5423 46.6096 44.5403C46.9962 44.8603 48.4461 46.0551 49.8315 47.1954C59.246 54.945 62.9328 57.9329 64.3594 58.9692L64.8866 59.3523L64.5937 59.0026C64.4326 58.8103 62.7857 57.1086 60.934 55.2211C59.0823 53.3336 57.5973 51.7398 57.6341 51.6794C57.6708 51.6189 57.8152 51.6037 57.9547 51.6453C58.0943 51.687 56.7932 50.2794 55.0633 48.5172L51.918 45.3132L52.2379 45.058C52.4139 44.9174 52.5932 44.8026 52.6366 44.8026C52.6798 44.8026 54.2378 46.3864 56.0987 48.3221C57.9595 50.258 59.6701 51.9611 59.8997 52.1067C60.1295 52.2524 60.581 52.5241 60.9032 52.7106L61.489 53.0496L60.7307 52.2252C60.3138 51.7718 58.3573 49.7424 56.3831 47.7153C51.8757 43.0871 51.8837 43.0961 52.1259 42.8922C52.3617 42.6937 52.2804 42.2333 51.9021 41.6252C51.4128 40.8388 50.9114 38.6188 51.0516 37.8602C51.1145 37.5199 51.337 37.2051 51.9768 36.551C52.6648 35.8475 53.0622 35.5645 54.1458 35.0058C54.9221 34.6055 55.5499 34.3519 55.6592 34.3945C55.9123 34.493 55.819 34.5625 54.4594 35.2884C52.7872 36.1811 52.1217 36.732 51.6567 37.6082C51.4284 38.0381 51.4631 38.6441 51.7369 39.0114C51.8654 39.1837 51.9976 39.1087 52.9029 38.3484L53.9239 37.491L53.5141 37.4316C52.9202 37.3455 52.9843 37.1473 53.6367 37.0527C54.409 36.9406 54.7134 36.8003 56.3517 35.8014C58.4237 34.5382 58.7806 34.0115 58.3615 32.8354C58.2447 32.5076 58.2543 32.373 58.4201 32.0204C58.6714 31.4855 58.6741 30.753 58.4263 30.2627C58.3206 30.0534 57.951 29.5112 57.605 29.0578C57.079 28.3683 56.9855 28.1736 57.0345 27.8689C57.0669 27.6684 57.1164 26.7266 57.1448 25.7757C57.1948 24.0947 57.2078 24.0211 57.6186 23.1066C57.8508 22.5893 58.1633 22.0031 58.3129 21.8037C58.9579 20.9439 59.4559 19.4899 59.2088 19.1878C59.0215 18.9587 59.1914 18.8879 59.7436 18.9647C60.4362 19.061 61.0069 18.8237 60.9076 18.4806C60.6835 17.706 60.6949 17.4495 60.9662 17.1564C61.4649 16.618 62.3814 16.5386 62.7915 16.9984C62.9851 17.2155 62.9836 17.2421 62.7597 17.5505C62.6304 17.7287 62.3178 17.9816 62.0653 18.1124C61.4738 18.4188 61.4995 18.4006 61.564 18.4658C61.6883 18.592 62.4553 18.2712 62.8807 17.9151C63.4967 17.3997 63.7681 16.7521 63.7699 15.7941C63.7722 14.5295 63.1048 13.3309 62.1088 12.811C61.5346 12.5114 60.5559 12.5099 60.0742 12.808C59.3637 13.2476 58.7923 14.4161 58.5377 15.9497C58.3991 16.7844 58.2071 16.6363 58.2166 15.7021C58.2265 14.699 58.4974 13.8691 59.0987 12.998C59.3567 12.6243 59.5442 12.2949 59.5155 12.2659C59.4239 12.1728 57.9946 11.9943 57.3884 12.0001C57.0662 12.0032 56.69 12.0611 56.5523 12.1288ZM18.397 29.6534C18.666 29.9754 22.6856 34.0907 27.3292 38.7984C31.9729 43.5063 35.7723 47.4213 35.7723 47.4987C35.7723 47.684 26.8513 56.8313 22.826 60.7735C19.3362 64.1912 18.6028 64.9957 18.0933 65.9646C17.2667 67.5367 17.0291 69.0276 17.0275 72.652L17.0266 75H41.5131H65.9997V72.1913C65.9997 68.3994 66.0868 68.598 63.4406 66.3547C62.3672 65.4447 60.8036 64.1431 59.9659 63.4622C59.1282 62.7815 56.044 60.2504 53.112 57.8377C50.1801 55.4248 46.31 52.2406 44.512 50.7615C42.7138 49.2823 40.3677 47.3488 39.2983 46.4649C38.2289 45.5808 37.0539 44.6179 36.6872 44.3249C35.8861 43.6848 31.2683 39.8842 28.1671 37.3127C26.045 35.553 21.4513 31.8392 19.7812 30.533C18.1626 29.2672 17.9743 29.1475 18.397 29.6534ZM48.3553 60.5951C52.834 65.1379 55.8091 68.2423 55.7603 68.3223C55.6443 68.5127 25.511 68.5187 25.3951 68.3284C25.3472 68.2498 28.4115 65.0527 32.908 60.4894C38.9391 54.3689 40.5395 52.8056 40.6853 52.8924C40.7861 52.9524 44.2377 56.4187 48.3553 60.5951Z" fill="#EFFBFF"/>
<path d="M16.6758 84.165L14.2559 88H12.123L15.459 82.9346L12.4033 78.3682H14.5361L16.6758 81.7725L18.8154 78.3682H20.9346L18.0088 82.9346L21.2148 88H19.0957L16.6758 84.165ZM30.1973 81.417C30.1973 82.0413 30.0537 82.5951 29.7666 83.0781C29.484 83.5566 29.0807 83.9326 28.5566 84.2061C28.0326 84.4749 27.4082 84.6094 26.6836 84.6094H24.291V88H22.2744V78.3682H26.6016C27.7546 78.3682 28.641 78.6348 29.2607 79.168C29.8851 79.6966 30.1973 80.4463 30.1973 81.417ZM28.167 81.4512C28.167 80.4395 27.57 79.9336 26.376 79.9336H24.291V83.0576H26.4307C26.9867 83.0576 27.415 82.9209 27.7158 82.6475C28.0166 82.3695 28.167 81.9707 28.167 81.4512ZM40.7861 83.1396C40.7861 84.1423 40.5833 85.0195 40.1777 85.7715C39.7767 86.5189 39.2093 87.0999 38.4756 87.5146C37.7464 87.9294 36.8896 88.1367 35.9053 88.1367C34.8981 88.1367 34.0322 87.9362 33.3076 87.5352C32.583 87.1296 32.027 86.5531 31.6396 85.8057C31.2523 85.0583 31.0586 84.1696 31.0586 83.1396C31.0586 82.1097 31.25 81.2279 31.6328 80.4941C32.0202 79.7604 32.5762 79.1999 33.3008 78.8125C34.0299 78.4206 34.9027 78.2246 35.9189 78.2246C36.9398 78.2246 37.8125 78.4229 38.5371 78.8193C39.2617 79.2113 39.8177 79.7741 40.2051 80.5078C40.5924 81.2415 40.7861 82.1188 40.7861 83.1396ZM38.7285 83.1396C38.7285 82.1006 38.4824 81.2871 37.9902 80.6992C37.498 80.1068 36.8076 79.8105 35.9189 79.8105C35.0166 79.8105 34.3193 80.1045 33.8271 80.6924C33.335 81.2757 33.0889 82.0915 33.0889 83.1396C33.0889 83.8415 33.2028 84.4476 33.4307 84.958C33.6585 85.4684 33.9821 85.8626 34.4014 86.1406C34.8252 86.4141 35.3265 86.5508 35.9053 86.5508C36.8076 86.5508 37.5026 86.2546 37.9902 85.6621C38.4824 85.0697 38.7285 84.2288 38.7285 83.1396ZM44.334 83.8711V88H42.3174V78.3682H44.334V82.2031H48.5312V78.3682H50.5479V88H48.5312V83.8711H44.334ZM61.7998 83.1396C61.7998 84.1423 61.597 85.0195 61.1914 85.7715C60.7904 86.5189 60.223 87.0999 59.4893 87.5146C58.7601 87.9294 57.9033 88.1367 56.9189 88.1367C55.9118 88.1367 55.0459 87.9362 54.3213 87.5352C53.5967 87.1296 53.0407 86.5531 52.6533 85.8057C52.266 85.0583 52.0723 84.1696 52.0723 83.1396C52.0723 82.1097 52.2637 81.2279 52.6465 80.4941C53.0339 79.7604 53.5898 79.1999 54.3145 78.8125C55.0436 78.4206 55.9163 78.2246 56.9326 78.2246C57.9535 78.2246 58.8262 78.4229 59.5508 78.8193C60.2754 79.2113 60.8314 79.7741 61.2188 80.5078C61.6061 81.2415 61.7998 82.1188 61.7998 83.1396ZM59.7422 83.1396C59.7422 82.1006 59.4961 81.2871 59.0039 80.6992C58.5117 80.1068 57.8213 79.8105 56.9326 79.8105C56.0303 79.8105 55.333 80.1045 54.8408 80.6924C54.3486 81.2757 54.1025 82.0915 54.1025 83.1396C54.1025 83.8415 54.2165 84.4476 54.4443 84.958C54.6722 85.4684 54.9958 85.8626 55.415 86.1406C55.8389 86.4141 56.3402 86.5508 56.9189 86.5508C57.8213 86.5508 58.5163 86.2546 59.0039 85.6621C59.4961 85.0697 59.7422 84.2288 59.7422 83.1396ZM67.8291 86.5508C69.0505 86.5508 69.8958 85.9401 70.3652 84.7188L72.1221 85.3818C71.7438 86.3115 71.1878 87.0042 70.4541 87.46C69.7249 87.9111 68.8499 88.1367 67.8291 88.1367C66.7992 88.1367 65.9219 87.9408 65.1973 87.5488C64.4727 87.1523 63.9189 86.5804 63.5361 85.833C63.1579 85.0856 62.9688 84.1878 62.9688 83.1396C62.9688 82.0824 63.151 81.1891 63.5156 80.46C63.8802 79.7308 64.418 79.1771 65.1289 78.7988C65.8398 78.416 66.7103 78.2246 67.7402 78.2246C68.8704 78.2246 69.791 78.4525 70.502 78.9082C71.2129 79.3594 71.7119 80.0247 71.999 80.9043L70.2217 81.3896C70.0713 80.9066 69.7751 80.5238 69.333 80.2412C68.8955 79.9541 68.3783 79.8105 67.7812 79.8105C66.8698 79.8105 66.1771 80.0931 65.7031 80.6582C65.2337 81.2233 64.999 82.0505 64.999 83.1396C64.999 83.8779 65.1061 84.5 65.3203 85.0059C65.5391 85.5117 65.8581 85.8968 66.2773 86.1611C66.7012 86.4209 67.2184 86.5508 67.8291 86.5508Z" fill="#EFFBFF"/>
</svg>
