<svg width="62" height="77" viewBox="0 0 62 77" fill="none" xmlns="http://www.w3.org/2000/svg">
<path fill-rule="evenodd" clip-rule="evenodd" d="M44.5523 0.128775C43.7369 0.529426 43.929 2.23285 44.9877 3.98786C45.2853 4.48137 45.4219 4.81817 45.3528 4.88832C45.2491 4.99353 44.8511 4.55508 44.2154 3.63536C44.0578 3.40734 43.6608 3.16338 42.9874 2.88067C42.041 2.48346 41.9464 2.46682 41.0543 2.54172C40.0715 2.62423 38.8441 2.4812 37.9739 2.18292C37.3275 1.96131 37.1757 1.96024 37.3542 2.17852C37.5687 2.44078 37.3182 2.50486 36.8518 2.30715C36.2638 2.05785 35.8522 2.08602 35.5374 2.39715C35.3885 2.54421 35.1433 2.78508 34.9926 2.93214C34.8418 3.07921 34.6412 3.19964 34.5469 3.19964C34.3404 3.19976 33.0279 4.40599 33.0279 4.59574C33.0279 4.66933 33.173 4.74637 33.3501 4.76705C33.786 4.81794 33.715 5.02694 33.234 5.10862C32.659 5.20646 32.5593 5.30751 32.5595 5.79246C32.5598 6.2107 32.5793 6.2327 32.9785 6.26159C33.4679 6.29713 33.8826 6.49437 33.7895 6.64738C33.7536 6.70611 33.4734 6.72406 33.1668 6.6872C32.6901 6.63002 32.5586 6.66283 32.262 6.91333C32.0711 7.07454 31.8472 7.18261 31.7645 7.15348C31.6818 7.12423 31.5405 7.16251 31.4504 7.23836C31.3213 7.34703 30.5323 7.06836 27.7344 5.92585C25.7807 5.12811 22.5743 3.82202 20.6089 3.02345C17.53 1.77252 16.9638 1.50336 16.517 1.07845C16.037 0.62192 15.9831 0.599212 15.7931 0.773739C15.659 0.896788 15.4935 0.933999 15.3159 0.881094L15.0438 0.799894L15.3074 0.99594C15.4525 1.10377 15.571 1.26927 15.571 1.36366C15.571 1.48707 15.7153 1.53522 16.0853 1.53522C16.4538 1.53522 17.1255 1.75813 18.4578 2.32237C19.4797 2.75536 22.6622 4.09296 25.5297 5.29491C28.3972 6.49686 30.8891 7.58932 31.0671 7.72259C31.2453 7.85575 31.4825 7.94919 31.5944 7.93029C31.7537 7.90318 31.8028 7.99152 31.8219 8.33986C31.8539 8.92312 32.024 9.22509 32.4789 9.50662C33.0078 9.8338 33.3675 9.79682 33.8006 9.37085C34.112 9.06459 34.2137 9.02441 34.409 9.13058C34.5888 9.22818 34.6772 9.21677 34.7873 9.08207C34.9773 8.85 34.7177 8.50868 34.4129 8.58964C34.2956 8.62067 34.1779 8.61021 34.1512 8.56622C34.0782 8.44638 34.3851 7.32551 34.6139 6.87659C34.9302 6.25612 35.0181 5.82646 34.8957 5.49999C34.7296 5.05654 34.8846 4.92446 35.2085 5.23321L35.4898 5.50142L35.851 5.15308C36.0496 4.96143 36.2889 4.65577 36.3825 4.47376C36.5819 4.0863 36.7973 4.15478 36.7508 4.59098C36.7235 4.84742 36.7887 4.91958 37.1707 5.05595C37.4194 5.14464 38.0187 5.26721 38.5025 5.32808C39.7705 5.48787 39.9491 5.75822 38.8412 5.84072C38.4144 5.87247 38.3443 5.93643 37.7065 6.87528C36.7051 8.34901 35.8865 9.91012 35.4886 11.1048C35.076 12.3432 35.0622 12.4593 35.3596 12.1863C35.7232 11.8523 35.7827 12.1935 35.447 12.6879C34.8032 13.6357 34.7112 15.5399 35.2392 16.9906C35.468 17.6195 35.6475 17.9255 35.8482 18.0291C36.0387 18.1275 36.759 18.1765 38.0296 18.1777C39.7697 18.1793 40.2822 18.2623 39.9267 18.4852C39.8527 18.5317 39.4563 18.5604 39.0461 18.549C38.6358 18.5374 38.3002 18.5711 38.3002 18.6235C38.3002 18.676 38.627 18.9013 39.0264 19.1241C39.6513 19.4727 39.8682 19.5306 40.5788 19.538C41.7937 19.5507 41.5494 19.9221 40.3074 19.9509C39.9193 19.9599 39.7015 20.0466 39.4062 20.3098C39.1919 20.5006 38.6577 20.857 38.2191 21.1017C37.7803 21.3464 37.3291 21.6265 37.2164 21.7242C36.9768 21.9318 36.9418 22.6499 37.1488 23.1109C37.2426 23.3198 37.2481 23.4557 37.1663 23.5387C37.0075 23.6998 36.6871 23.2045 36.5654 22.61L36.4736 22.1622L36.1539 22.4866C35.8096 22.8359 35.8106 23.1095 36.1591 23.8106C36.4153 24.3261 36.1489 24.5169 35.8741 24.0147C35.4707 23.277 35.4156 23.2252 35.214 23.3948C34.4825 24.0109 34.8485 25.6273 36.0766 27.204C36.3888 27.6047 36.5258 27.8741 36.4543 27.9466C36.2728 28.1308 35.2928 26.9216 34.8269 25.9388C34.4603 25.1654 34.4135 24.9666 34.456 24.3686C34.4947 23.8273 34.5956 23.5454 34.938 23.0219C35.4158 22.2914 35.5093 21.7461 35.1566 21.7461C35.0115 21.7461 34.7937 22.0207 34.4837 22.5945C33.9612 23.5617 33.7518 23.7327 33.0665 23.7513C32.5778 23.7647 32.5773 23.7643 28.8085 19.9965C26.7354 17.9241 24.8736 15.9853 24.6711 15.688C24.4687 15.3909 24.0651 14.6965 23.774 14.145C23.4831 13.5935 23.1792 13.1209 23.0986 13.0949C22.7159 12.9711 23.1128 14.4345 23.7199 15.3856C23.9286 15.7125 27.2415 19.1607 31.082 23.0484C35.3215 27.3398 38.0226 30.1596 37.9572 30.226C37.892 30.2922 37.0244 29.564 35.7491 28.3723C33.8819 26.6276 33.5911 26.3998 33.1332 26.3217C32.5522 26.2227 32.5541 26.2242 28.4022 22.4042C24.7516 19.0453 24.158 18.4172 23.5384 17.2581C23.2501 16.7187 22.9439 16.2773 22.8581 16.2773C22.7556 16.2773 22.7274 16.3585 22.7761 16.514C22.8168 16.6441 22.8167 16.8056 22.7758 16.8726C22.6896 17.0144 12.8756 7.23836 9.77159 3.91855L7.6627 1.66302L6.33141 1.65862L5 1.65411L5.04546 4.53712C5.08799 7.2411 5.10732 7.4545 5.35652 7.97321C5.75053 8.79329 5.73542 8.78022 16.0382 17.2649C19.3575 19.9985 22.862 22.8875 23.8258 23.6848C24.7897 24.482 25.7499 25.2681 25.9597 25.4316C26.2781 25.6798 32.1949 30.5423 34.6096 32.5403C34.9962 32.8603 36.4461 34.0551 37.8315 35.1955C47.246 42.945 50.9328 45.9329 52.3594 46.9692L52.8866 47.3523L52.5937 47.0026C52.4326 46.8103 50.7857 45.1086 48.934 43.2211C47.0823 41.3336 45.5973 39.7398 45.6341 39.6794C45.6708 39.6189 45.8152 39.6037 45.9547 39.6453C46.0943 39.687 44.7932 38.2794 43.0633 36.5172L39.918 33.3132L40.2379 33.058C40.4139 32.9174 40.5932 32.8026 40.6366 32.8026C40.6798 32.8026 42.2378 34.3864 44.0987 36.3221C45.9595 38.258 47.6701 39.9611 47.8997 40.1067C48.1295 40.2524 48.581 40.5241 48.9032 40.7106L49.489 41.0496L48.7307 40.2252C48.3138 39.7718 46.3573 37.7424 44.3831 35.7153C39.8757 31.0871 39.8837 31.0961 40.1259 30.8922C40.3617 30.6937 40.2804 30.2333 39.9021 29.6252C39.4128 28.8388 38.9114 26.6188 39.0516 25.8602C39.1145 25.5199 39.337 25.2051 39.9768 24.551C40.6648 23.8475 41.0622 23.5645 42.1458 23.0058C42.9221 22.6055 43.5499 22.3519 43.6592 22.3945C43.9123 22.493 43.819 22.5625 42.4594 23.2884C40.7872 24.1811 40.1217 24.732 39.6566 25.6082C39.4284 26.0381 39.4631 26.6441 39.7369 27.0114C39.8654 27.1837 39.9976 27.1087 40.9029 26.3484L41.9239 25.491L41.5141 25.4316C40.9202 25.3455 40.9843 25.1473 41.6367 25.0527C42.409 24.9406 42.7134 24.8003 44.3517 23.8014C46.4237 22.5382 46.7806 22.0115 46.3615 20.8354C46.2447 20.5076 46.2543 20.373 46.4201 20.0204C46.6714 19.4855 46.6741 18.753 46.4263 18.2627C46.3206 18.0534 45.951 17.5112 45.605 17.0578C45.079 16.3683 44.9855 16.1736 45.0346 15.8689C45.0669 15.6684 45.1164 14.7266 45.1448 13.7757C45.1948 12.0947 45.2078 12.0211 45.6186 11.1066C45.8508 10.5893 46.1633 10.0031 46.3129 9.80372C46.9579 8.94392 47.4559 7.48993 47.2088 7.18784C47.0215 6.95874 47.1914 6.88788 47.7436 6.96469C48.4362 7.06098 49.0069 6.82369 48.9076 6.48058C48.6835 5.70603 48.6949 5.44947 48.9662 5.15641C49.4649 4.61797 50.3814 4.53855 50.7915 4.99841C50.9851 5.2155 50.9836 5.24213 50.7597 5.55052C50.6304 5.72873 50.3178 5.98161 50.0653 6.11238C49.4738 6.41876 49.4995 6.40057 49.564 6.46583C49.6883 6.59197 50.4553 6.27122 50.8807 5.91515C51.4967 5.39965 51.7681 4.75207 51.7699 3.79408C51.7722 2.52947 51.1048 1.33085 50.1088 0.810951C49.5346 0.511355 48.5559 0.509928 48.0742 0.807979C47.3637 1.24763 46.7923 2.41605 46.5377 3.9497C46.3991 4.78441 46.2071 4.63628 46.2166 3.70206C46.2265 2.69901 46.4974 1.86905 47.0987 0.997961C47.3567 0.624298 47.5442 0.294861 47.5155 0.265852C47.4239 0.172763 45.9946 -0.00568628 45.3884 0.000139204C45.0662 0.00323029 44.69 0.0611286 44.5523 0.128775ZM6.39702 17.6534C6.66602 17.9754 10.6856 22.0907 15.3292 26.7984C19.9729 31.5063 23.7723 35.4213 23.7723 35.4987C23.7723 35.684 14.8513 44.8313 10.826 48.7735C7.33618 52.1912 6.60275 52.9957 6.09334 53.9646C5.26666 55.5367 5.02906 57.0276 5.02753 60.652L5.0266 63H29.5131H53.9997V60.1913C53.9997 56.3994 54.0868 56.598 51.4406 54.3547C50.3672 53.4447 48.8036 52.1431 47.9659 51.4622C47.1282 50.7815 44.044 48.2504 41.112 45.8377C38.1801 43.4248 34.31 40.2406 32.512 38.7615C30.7138 37.2823 28.3677 35.3488 27.2983 34.4649C26.2289 33.5808 25.0539 32.6179 24.6872 32.3249C23.8861 31.6848 19.2683 27.8842 16.1671 25.3127C14.045 23.553 9.45128 19.8392 7.78115 18.533C6.16258 17.2672 5.97431 17.1475 6.39702 17.6534ZM36.3553 48.5951C40.834 53.1379 43.8091 56.2423 43.7603 56.3223C43.6443 56.5127 13.511 56.5187 13.3951 56.3284C13.3472 56.2498 16.4115 53.0527 20.908 48.4894C26.9391 42.3689 28.5395 40.8056 28.6853 40.8924C28.7862 40.9525 32.2377 44.4187 36.3553 48.5951Z" fill="#EFFBFF"/>
<path d="M4.67578 72.165L2.25586 76H0.123047L3.45898 70.9346L0.40332 66.3682H2.53613L4.67578 69.7725L6.81543 66.3682H8.93457L6.00879 70.9346L9.21484 76H7.0957L4.67578 72.165ZM18.1973 69.417C18.1973 70.0413 18.0537 70.5951 17.7666 71.0781C17.484 71.5566 17.0807 71.9326 16.5566 72.2061C16.0326 72.4749 15.4082 72.6094 14.6836 72.6094H12.291V76H10.2744V66.3682H14.6016C15.7546 66.3682 16.641 66.6348 17.2607 67.168C17.8851 67.6966 18.1973 68.4463 18.1973 69.417ZM16.167 69.4512C16.167 68.4395 15.57 67.9336 14.376 67.9336H12.291V71.0576H14.4307C14.9867 71.0576 15.415 70.9209 15.7158 70.6475C16.0166 70.3695 16.167 69.9707 16.167 69.4512ZM28.7861 71.1396C28.7861 72.1423 28.5833 73.0195 28.1777 73.7715C27.7767 74.5189 27.2093 75.0999 26.4756 75.5146C25.7464 75.9294 24.8896 76.1367 23.9053 76.1367C22.8981 76.1367 22.0322 75.9362 21.3076 75.5352C20.583 75.1296 20.027 74.5531 19.6396 73.8057C19.2523 73.0583 19.0586 72.1696 19.0586 71.1396C19.0586 70.1097 19.25 69.2279 19.6328 68.4941C20.0202 67.7604 20.5762 67.1999 21.3008 66.8125C22.0299 66.4206 22.9027 66.2246 23.9189 66.2246C24.9398 66.2246 25.8125 66.4229 26.5371 66.8193C27.2617 67.2113 27.8177 67.7741 28.2051 68.5078C28.5924 69.2415 28.7861 70.1188 28.7861 71.1396ZM26.7285 71.1396C26.7285 70.1006 26.4824 69.2871 25.9902 68.6992C25.498 68.1068 24.8076 67.8105 23.9189 67.8105C23.0166 67.8105 22.3193 68.1045 21.8271 68.6924C21.335 69.2757 21.0889 70.0915 21.0889 71.1396C21.0889 71.8415 21.2028 72.4476 21.4307 72.958C21.6585 73.4684 21.9821 73.8626 22.4014 74.1406C22.8252 74.4141 23.3265 74.5508 23.9053 74.5508C24.8076 74.5508 25.5026 74.2546 25.9902 73.6621C26.4824 73.0697 26.7285 72.2288 26.7285 71.1396ZM32.334 71.8711V76H30.3174V66.3682H32.334V70.2031H36.5312V66.3682H38.5479V76H36.5312V71.8711H32.334ZM49.7998 71.1396C49.7998 72.1423 49.597 73.0195 49.1914 73.7715C48.7904 74.5189 48.223 75.0999 47.4893 75.5146C46.7601 75.9294 45.9033 76.1367 44.9189 76.1367C43.9118 76.1367 43.0459 75.9362 42.3213 75.5352C41.5967 75.1296 41.0407 74.5531 40.6533 73.8057C40.266 73.0583 40.0723 72.1696 40.0723 71.1396C40.0723 70.1097 40.2637 69.2279 40.6465 68.4941C41.0339 67.7604 41.5898 67.1999 42.3145 66.8125C43.0436 66.4206 43.9163 66.2246 44.9326 66.2246C45.9535 66.2246 46.8262 66.4229 47.5508 66.8193C48.2754 67.2113 48.8314 67.7741 49.2188 68.5078C49.6061 69.2415 49.7998 70.1188 49.7998 71.1396ZM47.7422 71.1396C47.7422 70.1006 47.4961 69.2871 47.0039 68.6992C46.5117 68.1068 45.8213 67.8105 44.9326 67.8105C44.0303 67.8105 43.333 68.1045 42.8408 68.6924C42.3486 69.2757 42.1025 70.0915 42.1025 71.1396C42.1025 71.8415 42.2165 72.4476 42.4443 72.958C42.6722 73.4684 42.9958 73.8626 43.415 74.1406C43.8389 74.4141 44.3402 74.5508 44.9189 74.5508C45.8213 74.5508 46.5163 74.2546 47.0039 73.6621C47.4961 73.0697 47.7422 72.2288 47.7422 71.1396ZM55.8291 74.5508C57.0505 74.5508 57.8958 73.9401 58.3652 72.7188L60.1221 73.3818C59.7438 74.3115 59.1878 75.0042 58.4541 75.46C57.7249 75.9111 56.8499 76.1367 55.8291 76.1367C54.7992 76.1367 53.9219 75.9408 53.1973 75.5488C52.4727 75.1523 51.9189 74.5804 51.5361 73.833C51.1579 73.0856 50.9688 72.1878 50.9688 71.1396C50.9688 70.0824 51.151 69.1891 51.5156 68.46C51.8802 67.7308 52.418 67.1771 53.1289 66.7988C53.8398 66.416 54.7103 66.2246 55.7402 66.2246C56.8704 66.2246 57.791 66.4525 58.502 66.9082C59.2129 67.3594 59.7119 68.0247 59.999 68.9043L58.2217 69.3896C58.0713 68.9066 57.7751 68.5238 57.333 68.2412C56.8955 67.9541 56.3783 67.8105 55.7812 67.8105C54.8698 67.8105 54.1771 68.0931 53.7031 68.6582C53.2337 69.2233 52.999 70.0505 52.999 71.1396C52.999 71.8779 53.1061 72.5 53.3203 73.0059C53.5391 73.5117 53.8581 73.8968 54.2773 74.1611C54.7012 74.4209 55.2184 74.5508 55.8291 74.5508Z" fill="#EFFBFF"/>
</svg>
