<svg width="420" height="530" viewBox="0 0 420 530" fill="none" xmlns="http://www.w3.org/2000/svg">
<path fill-rule="evenodd" clip-rule="evenodd" d="M338.364 1.16996C331.404 4.53996 333.044 18.868 342.08 33.63C344.62 37.781 345.786 40.614 345.196 41.204C344.311 42.089 340.914 38.401 335.488 30.665C334.143 28.747 330.755 26.695 325.007 24.317C316.929 20.976 316.122 20.836 308.507 21.466C300.119 22.16 289.643 20.957 282.215 18.448C276.698 16.584 275.402 16.575 276.926 18.411C278.757 20.617 276.619 21.156 272.638 19.493C267.619 17.396 264.106 17.633 261.419 20.25C260.148 21.487 258.055 23.513 256.769 24.75C255.482 25.987 253.77 27 252.965 27C251.202 27.001 240 37.147 240 38.743C240 39.362 241.238 40.01 242.75 40.184C246.47 40.612 245.864 42.37 241.759 43.057C236.851 43.88 236 44.73 236.002 48.809C236.004 52.327 236.171 52.512 239.578 52.755C243.755 53.054 247.295 54.713 246.5 56C246.194 56.494 243.802 56.645 241.185 56.335C237.116 55.854 235.994 56.13 233.462 58.237C231.833 59.593 229.922 60.502 229.216 60.257C228.51 60.011 227.304 60.333 226.535 60.971C225.433 61.885 218.699 59.541 194.818 49.931C178.143 43.221 150.775 32.235 134 25.518C107.72 14.996 102.888 12.732 99.074 9.15796C94.977 5.31796 94.517 5.12696 92.895 6.59496C91.751 7.62996 90.338 7.94296 88.822 7.49796L86.5 6.81496L88.75 8.46396C89.988 9.37096 91 10.763 91 11.557C91 12.595 92.231 13 95.389 13C98.535 13 104.268 14.875 115.639 19.621C124.362 23.263 151.525 34.514 176 44.624C200.475 54.734 221.744 63.923 223.264 65.044C224.785 66.164 226.809 66.95 227.764 66.791C229.124 66.563 229.543 67.306 229.706 70.236C229.979 75.142 231.431 77.682 235.314 80.05C239.828 82.802 242.898 82.491 246.595 78.908C249.253 76.332 250.121 75.994 251.788 76.887C253.322 77.708 254.077 77.612 255.017 76.479C256.638 74.527 254.423 71.656 251.821 72.337C250.82 72.598 249.815 72.51 249.587 72.14C248.964 71.132 251.584 61.704 253.537 57.928C256.236 52.709 256.987 49.095 255.942 46.349C254.524 42.619 255.847 41.508 258.612 44.105L261.013 46.361L264.096 43.431C265.791 41.819 267.833 39.248 268.632 37.717C270.334 34.458 272.173 35.034 271.776 38.703C271.543 40.86 272.099 41.467 275.36 42.614C277.482 43.36 282.598 44.391 286.727 44.903C297.55 46.247 299.074 48.521 289.618 49.215C285.975 49.482 285.377 50.02 279.933 57.917C271.386 70.313 264.399 83.444 261.002 93.493C257.481 103.909 257.363 104.886 259.901 102.59C263.005 99.78 263.513 102.65 260.647 106.809C255.152 114.781 254.367 130.798 258.874 143C260.827 148.29 262.359 150.864 264.072 151.735C265.698 152.563 271.846 152.975 282.691 152.985C297.543 152.999 301.917 153.697 298.883 155.572C298.251 155.963 294.868 156.204 291.367 156.108C287.865 156.011 285 156.294 285 156.735C285 157.177 287.79 159.072 291.199 160.946C296.532 163.878 298.384 164.365 304.449 164.427C314.818 164.534 312.733 167.658 302.132 167.9C298.82 167.976 296.961 168.705 294.44 170.919C292.611 172.524 288.052 175.522 284.308 177.58C280.563 179.638 276.712 181.994 275.75 182.816C273.705 184.562 273.406 190.602 275.173 194.48C275.973 196.237 276.02 197.38 275.322 198.078C273.967 199.433 271.232 195.267 270.193 190.267L269.41 186.5L266.681 189.229C263.742 192.167 263.751 194.468 266.725 200.365C268.912 204.701 266.638 206.306 264.293 202.082C260.85 195.877 260.379 195.441 258.659 196.868C252.415 202.05 255.539 215.646 266.021 228.908C268.686 232.279 269.855 234.545 269.245 235.155C267.696 236.704 259.331 226.533 255.355 218.266C252.226 211.761 251.826 210.089 252.189 205.059C252.519 200.506 253.38 198.135 256.303 193.731C260.381 187.587 261.179 183 258.169 183C256.93 183 255.071 185.31 252.425 190.136C247.966 198.272 246.178 199.71 240.329 199.867C236.158 199.979 236.154 199.976 203.986 168.284C186.291 150.852 170.4 134.544 168.672 132.044C166.944 129.545 163.499 123.704 161.015 119.065C158.532 114.426 155.938 110.451 155.25 110.232C151.984 109.191 155.371 121.5 160.553 129.5C162.334 132.25 190.611 161.254 223.391 193.954C259.576 230.051 282.631 253.769 282.073 254.327C281.516 254.884 274.111 248.759 263.226 238.735C247.289 224.06 244.807 222.144 240.898 221.487C235.939 220.654 235.956 220.667 200.518 188.536C169.359 160.283 164.292 155 159.004 145.25C156.543 140.713 153.93 137 153.197 137C152.322 137 152.082 137.683 152.497 138.991C152.845 140.086 152.844 141.444 152.495 142.008C151.759 143.2 67.994 60.971 41.5 33.047L23.5 14.075L12.137 14.038L0.77301 14L1.16101 38.25C1.52401 60.994 1.68901 62.789 3.81601 67.152C7.17901 74.05 7.05001 73.94 94.987 145.307C123.319 168.301 153.231 192.601 161.457 199.307C169.684 206.013 177.88 212.625 179.67 214C182.388 216.088 232.89 256.988 253.5 273.794C256.8 276.485 269.175 286.535 281 296.127C361.355 361.311 392.823 386.443 405 395.16L409.5 398.382L407 395.441C405.625 393.823 391.568 379.51 375.763 363.633C359.958 347.757 347.283 334.351 347.597 333.843C347.911 333.334 349.143 333.206 350.334 333.556C351.525 333.907 340.42 322.067 325.655 307.245L298.809 280.295L301.539 278.148C303.041 276.966 304.572 276 304.942 276C305.311 276 318.609 289.322 334.492 305.604C350.375 321.887 364.975 336.212 366.935 337.437C368.896 338.663 372.75 340.948 375.5 342.517L380.5 345.368L374.028 338.434C370.469 334.62 353.77 317.55 336.92 300.5C298.448 261.57 298.516 261.646 300.583 259.931C302.596 258.261 301.902 254.389 298.673 249.274C294.497 242.659 290.217 223.986 291.414 217.605C291.951 214.743 293.85 212.095 299.311 206.593C305.183 200.676 308.575 198.295 317.824 193.596C324.45 190.229 329.808 188.096 330.741 188.454C332.901 189.283 332.105 189.867 320.5 195.973C306.228 203.482 300.547 208.116 296.578 215.486C294.63 219.102 294.926 224.199 297.263 227.288C298.36 228.738 299.488 228.107 307.215 221.712L315.93 214.5L312.432 214C307.363 213.276 307.91 211.609 313.478 210.813C320.07 209.87 322.668 208.69 336.652 200.288C354.337 189.663 357.383 185.233 353.806 175.34C352.809 172.583 352.891 171.451 354.306 168.485C356.451 163.986 356.474 157.824 354.359 153.7C353.457 151.94 350.302 147.379 347.349 143.565C342.859 137.766 342.061 136.128 342.48 133.565C342.756 131.879 343.179 123.957 343.421 115.959C343.848 101.819 343.959 101.2 347.465 93.508C349.447 89.157 352.114 84.226 353.391 82.549C358.896 75.317 363.147 63.087 361.038 60.546C359.439 58.619 360.889 58.023 365.603 58.669C371.514 59.479 376.385 57.483 375.538 54.597C373.625 48.082 373.722 45.924 376.038 43.459C380.294 38.93 388.117 38.262 391.617 42.13C393.27 43.956 393.257 44.18 391.346 46.774C390.242 48.273 387.574 50.4 385.419 51.5C380.37 54.077 380.59 53.924 381.14 54.473C382.201 55.534 388.748 52.836 392.379 49.841C397.636 45.505 399.953 40.058 399.968 32C399.988 21.363 394.291 11.281 385.79 6.90796C380.889 4.38796 372.536 4.37596 368.424 6.88296C362.36 10.581 357.483 20.409 355.31 33.309C354.127 40.33 352.488 39.084 352.569 31.226C352.654 22.789 354.966 15.808 360.098 8.48096C362.3 5.33796 363.901 2.56696 363.656 2.32296C362.874 1.53996 350.674 0.0389629 345.5 0.0879629C342.75 0.113963 339.539 0.600964 338.364 1.16996ZM12.697 148.575C14.993 151.284 49.301 185.899 88.936 225.497C128.571 265.096 161 298.027 161 298.678C161 300.236 84.857 377.177 50.5 410.336C20.713 439.084 14.453 445.851 10.105 454C3.04901 467.224 1.02101 479.764 1.00801 510.25L1.00001 530H210H419V506.375C419 474.48 419.744 476.151 397.158 457.282C387.996 449.627 374.65 438.679 367.5 432.952C360.35 427.226 334.025 405.936 309 385.642C283.975 365.347 250.943 338.563 235.596 326.122C220.248 313.68 200.223 297.417 191.096 289.982C181.968 282.546 171.939 274.446 168.809 271.982C161.972 266.598 122.557 234.63 96.088 213C77.975 198.199 38.766 166.961 24.511 155.974C10.696 145.327 9.08901 144.32 12.697 148.575ZM268.4 408.836C306.627 447.047 332.02 473.159 331.604 473.832C330.614 475.433 73.417 475.484 72.428 473.883C72.019 473.222 98.174 446.33 136.553 407.947C188.03 356.465 201.69 343.316 202.934 344.046C203.795 344.551 233.255 373.707 268.4 408.836Z" fill="#EFFBFF"/>
</svg>
